<svg xmlns="http://www.w3.org/2000/svg" width="1400" height="760" viewBox="0 0 1400 760"><style>.t{font:700 24px Arial;fill:#102a43}.s{font:16px Arial;fill:#243b53}.b{fill:#e8f1fb;stroke:#2368a2;stroke-width:3}.u{fill:#f0fff4;stroke:#2f855a;stroke-width:3}.l{stroke:#486581;stroke-width:4;marker-end:url(#a)}</style><defs><marker id="a" markerWidth="10" markerHeight="10" refX="8" refY="3" orient="auto"><path d="M0,0 L0,6 L9,3 z" fill="#486581"/></marker></defs><text x="50" y="55" class="t">Northstar Active Directory Help Desk Lab</text><rect x="60" y="110" width="260" height="120" rx="15" class="b"/><text x="95" y="155" class="t">NS-DC01</text><text x="95" y="190" class="s">AD DS • DNS • 10.20.0.10</text><rect x="570" y="110" width="260" height="120" rx="15" class="b"/><text x="605" y="155" class="t">NS-FS01</text><text x="605" y="190" class="s">SMB Shares • 10.20.0.20</text><rect x="1080" y="110" width="260" height="120" rx="15" class="b"/><text x="1115" y="155" class="t">NS-PRN01</text><text x="1115" y="190" class="s">Print Server • 10.20.0.30</text><rect x="315" y="405" width="300" height="130" rx="15" class="u"/><text x="350" y="450" class="t">NS-HD01</text><text x="350" y="485" class="s">Help Desk Workstation</text><text x="350" y="515" class="s">10.20.10.25</text><rect x="785" y="405" width="300" height="130" rx="15" class="u"/><text x="820" y="450" class="t">User Endpoints</text><text x="820" y="485" class="s">Windows 11 • DHCP</text><text x="820" y="515" class="s">10.20.10.100–220</text><path d="M320 170 L570 170" class="l"/><path d="M830 170 L1080 170" class="l"/><path d="M190 230 L400 405" class="l"/><path d="M700 230 L520 405" class="l"/><path d="M1210 230 L1030 405" class="l"/><path d="M615 470 L785 470" class="l"/><text x="450" y="675" class="s">Domain: northstar.local • Server VLAN: 10.20.0.0/24 • User VLAN: 10.20.10.0/24 • VPN Pool: 10.20.50.0/24</text></svg>